<svg width="123.000000" height="32.000000" viewBox="0 0 123 32" fill="none" xmlns="http://www.w3.org/2000/svg" xmlns:xlink="http://www.w3.org/1999/xlink">
	<desc>
			Created with Pixso.
	</desc>
	<defs>
		<clipPath id="clip1_430">
			<rect id="IMAGE" rx="-0.500000" width="122.000000" height="31.000000" transform="translate(0.500000 0.500000)" fill="white" fill-opacity="0"/>
		</clipPath>
	</defs>
	<g clip-path="url(#clip1_430)">
		<path id="Vector" d="M32 30.93L27.12 30.93L27.12 13.14L18.54 30.03C18.33 30.46 18.03 30.79 17.65 31.01C17.27 31.23 16.87 31.34 16.44 31.34C16.01 31.34 15.62 31.23 15.24 31.01C14.88 30.79 14.6 30.46 14.39 30.03L5.76 13.14L5.76 30.93L0.92 30.93L0.92 3.37C0.92 2.74 1.08 2.18 1.41 1.7C1.74 1.21 2.18 0.89 2.71 0.72C2.97 0.65 3.23 0.63 3.49 0.66C3.75 0.67 4 0.73 4.24 0.84C4.49 0.94 4.71 1.09 4.91 1.28C5.11 1.46 5.27 1.68 5.41 1.95L16.44 23.39L27.46 1.95C27.75 1.42 28.14 1.05 28.63 0.82C29.14 0.6 29.67 0.57 30.22 0.72C30.74 0.89 31.17 1.21 31.5 1.7C31.84 2.18 32 2.74 32 3.37L32 30.93Z" fill="#FFFFFF" fill-opacity="1.000000" fill-rule="nonzero"/>
		<path id="Vector" d="M58.62 15.87C58.62 16.62 58.5 17.43 58.26 18.3C58.03 19.16 57.64 19.97 57.11 20.72C56.59 21.46 55.9 22.07 55.04 22.57C54.2 23.07 53.17 23.32 51.95 23.32L43.21 23.32L43.21 18.18L51.95 18.18C52.61 18.18 53.12 17.96 53.48 17.51C53.84 17.05 54.02 16.49 54.02 15.82C54.02 15.12 53.81 14.56 53.4 14.16C53 13.75 52.52 13.55 51.95 13.55L43.21 13.55C42.56 13.55 42.05 13.78 41.69 14.24C41.33 14.68 41.15 15.24 41.15 15.91L41.15 23.47C41.15 24.19 41.35 24.75 41.74 25.16C42.15 25.56 42.66 25.76 43.25 25.76L51.95 25.76L51.95 30.93L43.21 30.93C42.54 30.93 41.82 30.8 41.04 30.53C40.27 30.27 39.55 29.84 38.88 29.26C38.22 28.66 37.67 27.89 37.22 26.95C36.77 25.99 36.55 24.83 36.55 23.47L36.55 15.87C36.55 15.12 36.67 14.31 36.9 13.45C37.14 12.57 37.52 11.77 38.04 11.03C38.57 10.28 39.26 9.66 40.1 9.16C40.96 8.66 42 8.41 43.21 8.41L51.95 8.41C52.62 8.41 53.34 8.54 54.11 8.8C54.89 9.07 55.61 9.5 56.27 10.09C56.94 10.68 57.5 11.45 57.95 12.41C58.39 13.35 58.62 14.5 58.62 15.87Z" fill="#FFFFFF" fill-opacity="1.000000" fill-rule="nonzero"/>
		<path id="Vector" d="M80.18 13.82L71.73 13.82L71.73 30.93L66.83 30.93L66.83 13.82L60.53 13.82L60.53 8.41L66.83 8.41L66.83 1.05L71.73 1.05L71.73 8.41L80.18 8.41L80.18 13.82Z" fill="#FFFFFF" fill-opacity="1.000000" fill-rule="nonzero"/>
		<path id="Vector" d="M102.99 23.47C102.99 24.22 102.88 25.03 102.64 25.91C102.4 26.77 102.02 27.57 101.49 28.32C100.97 29.06 100.28 29.68 99.42 30.18C98.57 30.68 97.54 30.93 96.33 30.93L87.59 30.93C86.92 30.93 86.2 30.8 85.41 30.53C84.64 30.27 83.92 29.84 83.25 29.26C82.6 28.66 82.04 27.89 81.6 26.95C81.15 25.99 80.93 24.83 80.93 23.47C80.93 22.72 81.04 21.91 81.28 21.03C81.52 20.16 81.89 19.35 82.42 18.62C82.95 17.87 83.64 17.24 84.48 16.74C85.34 16.24 86.38 15.99 87.59 15.99L96.33 15.99L96.33 21.16L87.59 21.16C86.94 21.16 86.43 21.39 86.07 21.84C85.71 22.29 85.53 22.84 85.53 23.51C85.53 24.22 85.73 24.78 86.14 25.18C86.56 25.57 87.06 25.76 87.63 25.76L96.33 25.76C96.98 25.76 97.49 25.54 97.85 25.09C98.21 24.65 98.39 24.09 98.39 23.43L98.39 15.87C98.39 15.16 98.2 14.59 97.8 14.18C97.41 13.76 96.92 13.55 96.33 13.55L85.69 13.55L85.69 8.41L96.33 8.41C97 8.41 97.72 8.54 98.49 8.8C99.27 9.07 99.99 9.5 100.65 10.09C101.32 10.68 101.88 11.45 102.32 12.41C102.77 13.35 102.99 14.5 102.99 15.87L102.99 23.47Z" fill="#FFFFFF" fill-opacity="1.000000" fill-rule="nonzero"/>
		<path id="Vector" d="M113.84 3.64C113.84 4.02 113.8 4.35 113.72 4.64C113.64 4.93 113.53 5.19 113.38 5.41C113.25 5.63 113.09 5.82 112.9 5.98C112.72 6.14 112.53 6.27 112.33 6.38C112.13 6.48 111.93 6.55 111.73 6.59C111.52 6.64 111.33 6.66 111.16 6.66L114.19 9.59L111.94 9.59L108.91 6.66L107.87 6.66L107.87 5.04L111.16 5.04C111.34 5.02 111.5 4.98 111.65 4.91C111.81 4.84 111.94 4.75 112.04 4.63C112.16 4.52 112.24 4.38 112.3 4.21C112.36 4.05 112.39 3.86 112.39 3.64L112.39 2.62C112.39 2.53 112.38 2.46 112.36 2.41C112.34 2.36 112.31 2.33 112.28 2.31C112.25 2.28 112.21 2.27 112.18 2.26C112.14 2.26 112.11 2.26 112.08 2.26L107.29 2.26L107.29 9.59L105.84 9.59L105.84 1.45C105.84 1.34 105.85 1.23 105.89 1.13C105.93 1.03 105.98 0.94 106.04 0.87C106.11 0.79 106.19 0.74 106.28 0.69C106.37 0.65 106.46 0.63 106.57 0.63L112.08 0.63C112.41 0.63 112.68 0.7 112.9 0.83C113.13 0.96 113.31 1.13 113.45 1.33C113.59 1.52 113.69 1.73 113.75 1.96C113.81 2.19 113.84 2.41 113.84 2.61L113.84 3.64Z" fill="#FFFFFF" fill-opacity="1.000000" fill-rule="nonzero"/>
		<path id="Vector" d="M122.66 9.59L116.03 9.59C115.93 9.59 115.83 9.57 115.74 9.53C115.65 9.49 115.57 9.43 115.51 9.36C115.44 9.29 115.39 9.2 115.36 9.1C115.32 9 115.3 8.89 115.3 8.78L115.3 0.63L116.75 0.63L116.75 7.97L122.66 7.97L122.66 9.59Z" fill="#FFFFFF" fill-opacity="1.000000" fill-rule="nonzero"/>
	</g>
</svg>
